<?xml version="1.0" standalone="no"?>
<!DOCTYPE svg PUBLIC "-//W3C//DTD SVG 20010904//EN"
 "http://www.w3.org/TR/2001/REC-SVG-20010904/DTD/svg10.dtd">
<svg version="1.0" xmlns="http://www.w3.org/2000/svg"
 width="883.000000pt" height="883.000000pt" viewBox="0 0 883.000000 883.000000"
 preserveAspectRatio="xMidYMid meet">
<metadata>
Created by potrace 1.16, written by Peter Selinger 2001-2019
</metadata>
<g transform="translate(0.000000,883.000000) scale(0.100000,-0.100000)"
fill="#000000" stroke="none">
<path d="M3495 7503 c-39 -21 -49 -32 -75 -83 -21 -42 -23 -87 -6 -130 4 -10
-11 -33 -41 -66 -57 -60 -196 -214 -203 -224 -3 -4 -18 -10 -35 -14 -59 -13
-170 -36 -177 -36 -5 0 -8 49 -8 109 0 80 3 110 13 114 7 3 19 23 26 45 16 48
5 85 -36 124 -19 18 -35 23 -76 22 -45 0 -54 -4 -79 -34 -34 -42 -38 -104 -9
-141 18 -23 18 -46 13 -490 l-5 -466 -27 -18 c-86 -58 -86 -213 1 -271 36 -24
36 -27 -1 -41 -42 -16 -72 -69 -66 -116 2 -21 11 -46 20 -55 11 -13 15 -47 17
-147 l2 -130 95 -185 c112 -219 142 -270 162 -270 8 0 105 -7 215 -15 110 -8
203 -15 207 -15 3 0 4 -9 1 -20 -6 -23 -25 -23 -253 0 -52 6 -162 15 -245 21
-82 6 -212 16 -289 23 l-138 11 -32 60 c-18 33 -49 89 -69 125 l-36 66 0 139
c0 77 -3 230 -7 340 l-7 200 60 53 c33 29 76 65 95 80 20 15 46 42 58 60 23
32 23 36 16 233 -6 191 -6 201 14 226 32 41 28 110 -9 151 -26 28 -36 32 -80
32 -71 0 -102 -28 -109 -99 -4 -42 -1 -58 15 -79 17 -24 21 -50 27 -207 l7
-180 -43 -35 c-23 -19 -65 -56 -93 -82 -27 -26 -53 -48 -57 -48 -18 0 -33 -51
-38 -121 l-5 -77 -46 42 -47 41 -6 175 -7 175 35 25 c60 42 82 132 52 205 -8
18 -33 48 -57 64 -53 39 -121 42 -179 10 -98 -55 -109 -211 -19 -280 27 -21
29 -26 29 -94 0 -39 3 -134 7 -211 6 -124 9 -140 28 -159 26 -24 59 -52 148
-124 l65 -53 8 -97 c4 -53 4 -155 1 -228 l-7 -132 51 -83 c112 -186 138 -224
160 -240 18 -12 65 -19 174 -28 83 -6 227 -18 320 -25 94 -8 241 -19 328 -26
l157 -12 0 -29 c0 -27 -1 -28 -56 -28 -45 0 -62 5 -85 25 -63 53 -151 38 -183
-30 -37 -78 13 -165 96 -165 24 0 53 7 64 15 35 27 144 15 144 -15 0 -56 -9
-58 -195 -36 -66 8 -176 20 -245 26 -69 6 -170 15 -225 20 -55 5 -130 12 -167
15 -64 6 -69 8 -83 39 -24 51 -71 79 -138 84 -49 4 -63 1 -97 -22 -22 -14 -46
-36 -54 -48 -20 -31 -38 -136 -26 -151 83 -107 134 -131 216 -103 25 8 57 28
71 42 22 24 29 26 76 20 86 -11 345 -36 472 -46 66 -6 158 -15 205 -20 47 -6
101 -11 120 -13 32 -2 35 -5 38 -37 l3 -36 -73 3 c-40 2 -250 15 -467 29
l-393 26 -27 -20 c-16 -11 -57 -40 -92 -64 -35 -23 -65 -46 -67 -50 -2 -5 -9
-8 -15 -8 -6 0 -18 -7 -28 -16 -15 -13 -28 -14 -96 -5 -78 11 -266 30 -375 38
-48 4 -58 8 -64 26 -8 28 -52 75 -86 93 -15 8 -46 14 -70 14 -97 -1 -175 -87
-164 -184 3 -27 12 -59 21 -72 21 -32 20 -34 -22 -34 -25 -1 -48 -9 -67 -25
-24 -19 -30 -33 -34 -79 -4 -53 -3 -57 30 -90 l35 -35 -61 5 c-160 13 -169 14
-198 39 -22 19 -41 25 -75 25 -39 0 -50 -5 -79 -36 -93 -98 17 -237 137 -175
37 20 47 21 122 12 45 -6 156 -15 247 -22 90 -6 167 -12 170 -14 3 -2 58 -5
122 -6 l116 -3 58 56 c33 30 72 67 88 82 l29 26 136 -6 c111 -6 139 -4 151 7
8 8 72 43 142 79 l127 64 233 -18 c128 -9 302 -22 386 -28 l152 -11 0 -31 c0
-60 0 -60 -196 -47 -99 6 -224 17 -279 23 -88 10 -103 15 -128 40 -23 22 -37
28 -74 28 -39 0 -50 -5 -79 -36 -28 -29 -34 -43 -34 -79 0 -37 6 -50 35 -80
25 -25 45 -35 66 -35 l30 0 -27 -23 c-24 -21 -33 -22 -82 -16 -30 4 -120 11
-201 14 l-146 7 -101 -89 c-156 -137 -176 -153 -192 -153 -29 0 -83 -33 -99
-61 l-17 -28 -17 25 c-30 46 -68 64 -134 64 -67 0 -112 -21 -141 -65 -13 -19
-23 -25 -39 -21 -12 3 -127 10 -256 16 -129 5 -314 15 -412 21 -209 14 -191
22 -260 -111 -24 -47 -56 -105 -69 -130 -82 -149 -120 -221 -117 -224 2 -2 40
-1 85 1 l81 5 21 42 c12 22 37 68 55 101 18 33 49 88 67 123 28 52 38 62 55
58 11 -3 189 -13 395 -22 257 -11 376 -20 379 -28 11 -30 80 -85 116 -92 86
-16 183 41 200 116 l6 28 26 -24 c35 -32 83 -40 122 -19 35 18 71 69 71 100 0
21 220 220 243 220 210 -3 377 -28 377 -56 0 -15 81 -10 110 8 37 22 64 81 55
122 -9 40 -56 85 -97 91 -30 5 -31 6 -13 16 13 7 53 8 110 3 50 -4 162 -12
250 -18 242 -18 225 -13 225 -72 0 -27 7 -63 15 -79 17 -32 61 -60 96 -60 21
0 21 -2 15 -87 -4 -49 -12 -125 -18 -170 -11 -82 -12 -84 -62 -129 -146 -133
-253 -243 -263 -270 -7 -16 -14 -56 -17 -89 -4 -33 -12 -97 -18 -143 -6 -45
-9 -85 -5 -88 5 -5 53 21 67 36 3 3 22 16 43 30 41 27 43 33 52 131 5 56 11
70 33 89 62 52 267 257 281 280 16 29 24 72 46 254 8 71 17 131 19 133 9 9 56
-11 56 -24 0 -13 -8 -72 -30 -228 -6 -38 -14 -111 -19 -162 l-8 -91 -102 -103
c-138 -141 -135 -148 19 -41 53 37 221 153 226 156 3 2 43 325 50 399 6 64 7
67 33 67 14 0 37 -3 50 -7 22 -5 23 -9 17 -56 -4 -28 -16 -63 -27 -78 -48 -67
-2 -178 75 -179 37 0 124 63 133 98 4 17 -1 39 -15 66 -22 40 -27 87 -14 116
6 13 18 14 67 7 l60 -8 -3 -65 c-4 -66 0 -73 22 -51 14 12 32 25 78 55 30 19
251 169 300 204 32 22 49 40 45 45 -4 3 -325 42 -487 58 -74 8 -205 23 -290
34 -85 11 -179 22 -209 25 -29 3 -55 7 -58 9 -3 4 12 137 37 332 6 44 15 123
20 175 5 52 18 169 30 260 23 186 25 201 41 358 6 62 15 115 19 117 4 3 41 0
81 -5 41 -6 137 -17 213 -25 77 -9 149 -18 160 -20 12 -3 68 -9 126 -15 104
-10 291 -32 425 -50 39 -5 105 -13 148 -16 l77 -7 0 -43 c0 -24 -9 -112 -19
-196 -11 -84 -22 -182 -25 -218 -4 -36 -11 -99 -16 -140 -34 -259 -50 -401
-50 -444 0 -46 1 -48 19 -35 11 8 59 41 108 74 48 33 90 62 93 65 3 3 31 23
63 44 60 41 61 56 4 56 -26 0 -28 2 -22 35 3 19 7 51 10 70 l6 35 47 -7 c26
-3 48 -10 50 -14 2 -5 12 -19 21 -31 17 -20 21 -20 49 -9 47 20 58 37 38 59
-16 19 -21 68 -8 88 4 6 18 17 30 23 32 17 80 -3 88 -35 8 -29 13 -30 58 -3
39 23 42 30 25 62 -31 56 -70 77 -145 77 -60 0 -115 -25 -134 -60 -8 -15 -18
-17 -52 -13 -24 3 -45 7 -47 9 -2 1 0 33 4 71 l7 68 161 -12 c89 -6 216 -16
282 -22 66 -6 129 -11 141 -11 15 0 294 181 379 247 6 5 46 32 90 62 44 30 99
69 122 88 23 18 45 33 50 33 5 0 40 22 78 50 38 27 74 52 79 54 26 11 -24 25
-114 31 -93 7 -129 0 -150 -26 -3 -4 -62 -67 -131 -140 -69 -74 -153 -163
-186 -198 l-60 -65 -169 12 c-307 22 -547 41 -550 45 -2 2 -1 34 3 72 l6 68
96 -7 c53 -3 114 -6 136 -6 29 0 48 -7 67 -25 32 -30 86 -33 128 -8 35 21 50
52 50 107 0 36 -6 49 -32 75 -25 25 -40 31 -74 31 -25 0 -50 -7 -63 -17 -19
-16 -40 -18 -156 -15 l-135 3 6 57 c4 47 1 63 -16 90 -21 35 -72 62 -114 62
-16 0 -24 5 -21 13 2 6 6 59 9 117 7 115 29 423 46 620 l10 125 53 49 c28 27
82 75 118 107 l66 59 12 113 c6 61 16 171 22 242 14 183 38 484 47 589 6 69
12 91 27 102 13 9 20 30 23 67 4 49 1 57 -26 88 -27 31 -35 34 -83 33 -45 0
-56 -5 -81 -32 -23 -26 -28 -42 -28 -81 0 -33 6 -55 17 -66 14 -15 15 -28 4
-128 -12 -119 -23 -252 -49 -619 l-17 -226 -80 -74 c-44 -40 -99 -91 -123
-113 l-43 -40 -9 -110 c-4 -60 -16 -225 -25 -365 -9 -140 -21 -299 -27 -352
l-10 -98 -42 6 c-22 4 -42 7 -43 8 -1 1 2 56 8 121 24 296 39 481 48 620 6 83
16 201 23 262 l11 113 46 35 c89 68 105 80 116 92 15 15 33 157 41 328 5 118
9 135 36 189 36 70 32 110 -13 156 -25 25 -39 30 -76 30 -39 0 -50 -5 -79 -36
-27 -28 -34 -44 -34 -76 0 -22 8 -52 18 -66 17 -25 18 -38 6 -217 -7 -104 -15
-198 -19 -210 -3 -11 -43 -48 -89 -82 -76 -56 -86 -67 -93 -104 l-8 -41 -33
46 -34 47 11 119 c6 65 11 128 11 139 0 12 6 21 14 21 8 0 30 15 50 34 39 38
51 82 43 153 -6 54 -31 92 -78 115 -39 20 -119 24 -152 7 -102 -53 -126 -179
-51 -268 36 -41 36 -42 30 -114 -4 -39 -11 -109 -17 -155 -13 -96 -20 -79 107
-247 l83 -110 -4 -55 c-3 -30 -9 -107 -15 -170 -6 -63 -17 -205 -25 -315 -8
-110 -18 -233 -21 -274 l-7 -73 -44 5 c-24 2 -45 6 -47 8 -2 2 0 47 4 99 5 52
14 169 21 260 10 132 16 170 31 189 12 15 18 40 18 72 0 41 -5 52 -32 78 -27
25 -41 31 -79 31 -41 0 -51 -4 -78 -35 -38 -44 -43 -107 -11 -147 18 -23 18
-33 10 -134 -6 -60 -15 -174 -21 -254 -6 -80 -13 -147 -14 -149 -2 -2 -26 3
-54 10 l-50 13 5 55 c2 31 11 139 19 241 8 102 21 271 30 375 36 451 41 540
35 575 -6 31 -35 82 -83 145 -15 20 -82 113 -97 135 -8 12 -30 42 -49 67 -29
39 -32 48 -22 69 16 35 14 110 -4 145 -9 16 -34 43 -57 59 -107 78 -258 0
-258 -132 0 -51 17 -95 50 -128 25 -25 84 -50 119 -50 22 -1 40 -21 114 -124
48 -68 87 -127 87 -131 0 -4 14 -24 30 -45 23 -29 30 -48 29 -81 l0 -44 -16
30 c-27 53 -69 79 -137 83 -53 3 -66 0 -102 -24 -50 -32 -74 -78 -74 -140 0
-54 18 -92 61 -128 20 -17 29 -32 25 -42 -6 -16 -26 -225 -46 -479 -6 -71 -18
-190 -27 -263 -15 -128 -17 -133 -37 -128 -11 3 -36 6 -55 6 l-34 0 7 118 c16
261 37 531 73 938 3 40 3 82 0 95 -4 13 -47 66 -96 118 -49 52 -87 99 -85 105
2 6 8 79 13 163 8 131 12 156 30 179 15 19 21 41 21 74 0 55 -23 90 -70 110
-41 17 -101 0 -129 -37 -28 -34 -29 -111 -2 -144 20 -25 20 -52 0 -282 l-10
-118 28 -37 c15 -20 58 -68 95 -107 l68 -70 -6 -95 c-3 -52 -8 -101 -10 -108
-2 -8 -11 -104 -19 -215 -9 -111 -19 -205 -24 -210 -4 -4 -28 8 -52 28 -24 20
-64 53 -89 73 -24 21 -62 53 -85 72 -23 19 -62 53 -88 74 l-47 39 0 66 0 66
63 32 c34 18 82 34 107 37 64 7 100 48 100 115 0 42 -5 54 -31 80 -59 60 -166
33 -185 -46 -6 -24 -29 -52 -44 -53 -3 0 -4 34 -2 75 3 66 7 77 29 95 33 26
63 86 63 129 0 48 -33 112 -73 139 -26 17 -47 22 -101 22 -66 0 -70 -1 -106
-38 -77 -77 -76 -170 3 -247 l42 -40 -4 -247 -3 -247 24 -23 c13 -13 45 -41
72 -63 26 -22 56 -47 66 -55 10 -9 88 -74 174 -145 l156 -130 -5 -90 c-3 -49
-8 -108 -11 -130 l-5 -40 -65 0 c-61 0 -67 -2 -92 -31 -15 -17 -32 -39 -37
-49 -10 -17 -18 -17 -105 -7 -52 6 -136 14 -186 17 l-90 7 -87 169 -87 169 -6
115 c-5 87 -4 115 5 115 19 0 44 70 37 109 -3 19 -17 46 -31 61 l-26 28 36 6
c67 13 135 96 135 166 0 53 -58 150 -90 150 -6 0 -10 110 -10 284 l0 285 58
11 c31 6 71 15 87 20 17 5 58 14 92 21 l63 12 102 114 c191 213 181 205 238
208 84 4 160 83 160 165 0 55 -38 121 -85 147 -48 27 -117 29 -160 6z m125
-103 c11 -11 20 -31 20 -45 0 -31 -41 -75 -70 -75 -25 0 -70 42 -70 65 0 20
19 57 34 67 21 14 66 8 86 -12z m384 -481 c49 -38 24 -129 -36 -129 -34 0 -68
38 -68 76 0 33 36 74 65 74 7 0 24 -9 39 -21z m669 -161 c39 -46 6 -108 -57
-108 -64 0 -87 69 -40 116 29 30 67 27 97 -8z m-1386 -170 c45 -42 15 -118
-47 -118 -31 0 -70 39 -70 70 0 10 9 29 21 44 25 32 64 34 96 4z m-1213 -99
c48 -38 20 -129 -40 -129 -60 0 -86 91 -38 129 15 12 32 21 39 21 7 0 24 -9
39 -21z m2019 -210 c30 -16 37 -28 37 -66 0 -36 -32 -73 -64 -73 -32 0 -66 39
-66 76 0 23 8 38 26 53 31 24 37 25 67 10z m-1176 -151 c13 -12 23 -31 23 -43
0 -35 -37 -75 -70 -75 -31 0 -70 39 -70 70 0 10 9 29 21 44 25 32 64 34 96 4z
m1299 -12 c-3 -13 -13 -113 -21 -222 -8 -110 -22 -282 -30 -384 -8 -102 -15
-221 -15 -265 0 -100 -5 -108 -56 -97 l-39 8 0 64 c1 36 6 115 13 175 6 61 14
146 17 190 8 137 33 409 40 437 6 22 76 110 94 117 2 0 0 -10 -3 -23z m-1857
-1522 c38 -31 40 -62 6 -98 -29 -32 -61 -33 -92 -4 -33 30 -31 80 3 107 34 27
46 26 83 -5z m-810 -358 c28 -29 22 -77 -12 -101 -31 -21 -54 -19 -82 10 -30
29 -32 64 -5 93 28 29 71 28 99 -2z m1270 -56 c298 -20 432 -28 485 -29 28 -1
28 -2 23 -42 -3 -22 -7 -43 -10 -45 -2 -2 -91 3 -198 11 -107 8 -290 22 -407
31 l-214 16 -161 -80 -162 -80 -185 14 c-102 8 -259 20 -350 27 -135 10 -157
14 -120 20 27 5 61 20 83 39 l39 30 96 -12 c104 -13 396 -41 450 -42 25 -1 58
16 150 80 89 61 125 81 151 81 19 1 167 -8 330 -19z m-1106 -327 c57 -6 57 -6
40 -26 -16 -17 -26 -19 -93 -13 -41 3 -111 8 -155 11 -44 4 -91 8 -104 11 -23
5 -23 6 -5 20 16 12 41 14 139 9 66 -3 146 -8 178 -12z m-49 -524 c50 -39 24
-119 -39 -119 -24 0 -39 7 -54 26 -27 35 -26 59 4 89 30 30 54 31 89 4z"/>
<path d="M5755 6484 c-49 -25 -95 -97 -95 -149 0 -28 27 -94 48 -119 22 -24
96 -56 132 -56 25 0 41 -17 137 -152 59 -84 122 -172 139 -197 18 -26 80 -140
139 -254 82 -161 132 -244 218 -362 62 -85 119 -163 127 -175 8 -12 23 -31 33
-42 9 -12 17 -24 17 -29 0 -4 -21 -21 -47 -37 -27 -17 -77 -51 -113 -77 -36
-25 -96 -67 -135 -92 -38 -26 -72 -50 -75 -54 -3 -3 -16 -12 -29 -19 -14 -7
-30 -17 -35 -22 -9 -7 -170 -120 -226 -158 -8 -5 -105 -72 -215 -148 -110 -76
-245 -169 -300 -207 -55 -37 -134 -91 -175 -119 -41 -28 -77 -53 -80 -56 -3
-3 -54 -38 -115 -79 -60 -41 -120 -82 -131 -90 -12 -9 -30 -22 -40 -28 -11 -7
-99 -68 -196 -135 -98 -68 -221 -152 -274 -188 -52 -36 -101 -69 -107 -75 -7
-5 -32 -23 -57 -40 -25 -16 -47 -32 -50 -35 -3 -3 -45 -32 -95 -65 -49 -33
-92 -62 -95 -65 -3 -3 -45 -32 -95 -65 -49 -33 -92 -62 -95 -65 -3 -3 -50 -36
-105 -73 -55 -38 -134 -92 -175 -121 -148 -103 -246 -171 -320 -220 -41 -28
-77 -53 -80 -56 -3 -3 -45 -33 -95 -65 -49 -33 -95 -64 -101 -70 -6 -5 -20
-16 -30 -22 -114 -75 -224 -151 -246 -170 -14 -13 -25 -9 -98 36 -45 28 -86
51 -91 51 -5 0 -9 5 -9 10 0 6 -4 10 -9 10 -5 0 -65 34 -133 76 -67 42 -136
84 -153 93 -16 9 -32 19 -35 22 -3 3 -54 35 -115 71 -60 36 -186 112 -279 168
-93 56 -180 106 -194 111 -15 6 -293 5 -731 -2 -388 -6 -718 -9 -733 -7 l-27
3 82 165 c45 91 146 274 225 407 78 132 142 250 142 260 0 10 4 23 9 29 5 5
14 43 19 84 25 173 35 213 73 289 44 89 45 90 125 132 32 17 100 53 149 79 50
27 110 59 135 72 34 18 51 36 73 78 15 30 39 73 51 95 13 22 41 72 62 110 21
39 53 95 71 125 18 30 33 58 33 62 0 4 22 44 50 90 27 46 50 86 50 90 0 3 20
41 45 82 25 42 45 79 45 81 0 2 19 37 43 77 23 40 50 89 59 108 10 20 32 43
52 54 41 22 69 80 60 126 -4 16 -20 44 -37 60 -25 24 -39 30 -75 30 -38 0 -50
-5 -79 -36 -30 -33 -34 -42 -32 -88 2 -40 -4 -62 -24 -96 -54 -94 -99 -176
-110 -202 -6 -16 -15 -28 -19 -28 -4 0 -8 -5 -8 -11 0 -6 -22 -49 -50 -96 -27
-47 -50 -87 -50 -89 0 -3 -25 -48 -55 -100 -30 -53 -55 -97 -55 -99 0 -2 -14
-27 -30 -55 -17 -29 -49 -86 -72 -128 -59 -111 -59 -111 -157 -164 l-90 -48
59 116 c47 91 59 123 55 149 -3 27 -46 141 -95 250 -5 11 -25 58 -44 103 l-35
84 58 91 c115 180 110 174 150 181 84 13 140 80 141 169 0 61 -20 100 -72 137
-108 78 -259 0 -258 -134 1 -28 7 -62 15 -76 16 -29 19 -22 -107 -214 -43 -66
-78 -130 -78 -142 0 -12 9 -43 21 -70 11 -27 27 -65 35 -84 9 -19 19 -44 24
-55 5 -11 21 -49 35 -85 15 -36 32 -78 40 -95 28 -65 28 -68 -46 -211 -85
-166 -232 -451 -339 -659 -43 -82 -127 -247 -188 -365 -60 -118 -128 -251
-151 -294 l-41 -80 0 -282 0 -283 168 5 c92 2 204 6 248 9 l82 4 -29 -53 c-15
-30 -48 -88 -73 -131 -26 -42 -46 -79 -46 -82 0 -3 -25 -47 -55 -98 -30 -52
-55 -96 -55 -99 0 -3 -13 -27 -29 -54 -42 -71 -80 -140 -170 -303 l-41 -76 2
-289 3 -289 927 -3 927 -2 11 57 c6 32 23 99 37 148 60 219 95 343 108 385 27
88 104 366 128 458 5 23 14 42 19 42 5 0 48 -24 96 -53 48 -29 133 -81 189
-116 57 -34 103 -65 103 -69 1 -4 7 -52 15 -107 40 -274 56 -386 65 -455 20
-145 39 -212 70 -242 17 -15 36 -28 44 -28 8 0 16 -4 18 -9 2 -5 580 -12 1378
-16 l1375 -8 0 304 c0 167 4 370 8 450 l9 145 81 13 c45 7 116 19 157 26 41 7
129 22 195 34 66 11 158 27 205 35 47 9 123 22 170 30 47 8 92 17 101 21 14 5
17 -8 22 -92 4 -54 13 -188 21 -298 8 -110 20 -267 25 -350 6 -82 16 -187 22
-233 l12 -82 760 0 760 0 -7 142 c-4 78 -11 145 -15 148 -9 5 -19 112 -45 470
-9 124 -21 252 -27 285 -5 33 -14 110 -19 170 -6 61 -18 180 -26 265 -9 85
-19 259 -23 385 -8 243 -18 294 -74 395 -68 124 -191 221 -307 245 -65 12 -69
15 -62 33 6 15 121 233 126 239 1 2 27 -7 57 -20 47 -19 72 -22 199 -21 132 0
152 2 225 28 105 36 178 82 262 163 81 80 110 113 180 208 29 38 57 75 63 82
5 7 10 15 10 19 0 4 6 15 14 23 16 19 94 171 175 345 l61 128 0 362 0 361
-639 3 c-587 3 -642 2 -672 -14 -18 -9 -39 -22 -46 -29 -7 -7 -29 -23 -50 -36
-21 -13 -43 -28 -49 -34 -6 -5 -20 -15 -30 -22 -40 -26 -132 -89 -184 -125
-69 -49 -245 -170 -267 -183 -11 -7 -17 -6 -20 1 -8 23 -314 431 -362 484 -28
30 -100 106 -160 168 -60 62 -122 132 -137 155 -16 23 -33 47 -37 52 -5 6 -51
69 -102 142 -90 127 -94 134 -83 163 15 44 2 117 -26 155 -47 61 -145 84 -211
49z m119 -99 c33 -30 34 -68 1 -100 -31 -32 -59 -32 -92 1 -30 30 -27 75 9
104 31 26 50 25 82 -5z m-4882 -772 c41 -37 9 -123 -45 -123 -59 0 -92 91 -45
124 29 21 67 20 90 -1z m7706 -358 c9 -8 -43 -140 -84 -215 -14 -25 -47 -92
-75 -150 -177 -367 -203 -412 -304 -536 -38 -48 -43 -50 -61 -37 -10 8 -53 34
-94 58 -42 25 -86 58 -98 75 -43 58 -132 32 -132 -38 0 -40 57 -99 146 -154
47 -28 83 -56 81 -62 -7 -21 -113 -66 -184 -78 -104 -17 -170 4 -234 74 -44
49 -49 52 -105 56 -79 5 -114 -19 -164 -113 -21 -38 -53 -99 -72 -135 -19 -36
-61 -114 -93 -175 -32 -60 -70 -132 -85 -160 -57 -105 -137 -255 -229 -427
-21 -40 -69 -131 -106 -203 -37 -71 -71 -134 -75 -140 -4 -5 -33 -59 -65 -120
-32 -60 -80 -153 -107 -205 -28 -52 -55 -100 -62 -106 -6 -7 -45 -17 -86 -23
-41 -7 -111 -18 -155 -26 -44 -8 -132 -24 -195 -34 -63 -11 -155 -27 -205 -36
-49 -9 -128 -22 -175 -30 -47 -8 -98 -18 -114 -21 l-29 -7 6 194 c21 629 38
1140 44 1252 l6 127 146 101 c80 56 159 110 174 121 16 11 70 48 120 83 51 35
97 68 103 73 5 5 21 15 35 22 13 7 26 16 29 19 3 4 46 34 95 66 50 33 95 64
101 70 7 5 55 39 108 75 53 36 158 108 234 160 135 94 244 170 372 258 63 44
116 80 154 105 10 6 24 17 30 22 6 6 29 22 51 35 22 13 59 38 81 54 46 34 50
37 142 99 l64 42 531 -3 c293 -2 533 -5 535 -7z m-3418 -1952 c-6 -180 -17
-533 -25 -783 -8 -250 -19 -576 -25 -725 -5 -148 -9 -300 -10 -337 l0 -68
-649 0 -648 0 18 83 c9 45 25 114 34 152 33 138 45 191 64 275 11 47 27 117
36 155 9 39 23 95 30 125 7 30 21 89 30 130 71 312 82 355 100 430 9 36 19 96
23 135 l7 69 200 139 c240 167 394 273 495 341 41 28 77 53 80 56 3 3 30 22
60 42 30 20 84 57 120 82 36 24 66 41 68 36 2 -5 -2 -156 -8 -337z m2160 -23
c34 -10 53 -24 78 -57 17 -24 32 -50 32 -59 0 -8 5 -24 10 -34 6 -11 17 -77
25 -147 7 -70 19 -171 25 -223 6 -52 19 -183 31 -290 11 -107 24 -229 29 -270
5 -41 12 -122 15 -180 3 -58 8 -112 10 -120 4 -15 31 -295 42 -437 l6 -73
-472 0 -471 0 -1 38 c0 20 -4 89 -9 152 -5 63 -18 249 -30 413 l-20 299 57
106 c56 107 165 310 184 346 6 10 34 64 64 120 29 55 61 115 71 133 60 100
103 177 137 244 l38 77 52 -13 c29 -7 72 -18 97 -25z m-3524 -626 c-7 -27 -21
-80 -29 -119 -9 -38 -25 -108 -36 -155 -11 -47 -23 -101 -26 -121 l-7 -36
-300 -7 c-165 -4 -302 -5 -304 -3 -3 2 19 21 48 40 29 20 98 68 153 106 55 38
143 99 195 135 52 36 120 82 150 104 120 84 163 112 166 109 2 -2 -2 -26 -10
-53z m-2313 -109 c49 -30 93 -55 97 -55 5 0 10 -4 12 -8 2 -5 15 -15 29 -23
15 -8 57 -32 93 -54 56 -33 66 -43 61 -60 -4 -11 -15 -51 -26 -90 -10 -38 -25
-92 -33 -120 -40 -135 -59 -204 -71 -250 -7 -27 -20 -72 -29 -100 -12 -42 -59
-205 -98 -347 l-10 -38 -719 0 c-510 0 -719 3 -719 11 0 14 88 187 155 304 61
107 155 274 166 295 5 8 33 59 64 113 30 54 55 99 55 102 0 2 20 38 45 79 25
42 45 79 45 81 0 2 19 37 43 77 23 40 48 85 56 100 l14 28 161 3 c89 1 242 4
340 5 l179 2 90 -55z m2137 -632 c-1 -10 -8 -47 -16 -83 -8 -36 -22 -92 -29
-125 -8 -33 -21 -91 -31 -130 -9 -38 -22 -95 -28 -125 l-12 -55 -350 -3 -350
-2 -17 132 c-19 142 -43 302 -53 356 l-6 32 143 1 c79 1 203 5 274 8 72 4 208
8 303 9 158 2 172 1 172 -15z"/>
<path d="M7643 5238 c-29 -14 -41 -70 -22 -98 8 -11 86 -81 174 -155 139 -117
165 -135 195 -135 41 0 53 7 69 37 13 26 15 191 2 226 -11 28 -46 38 -82 25
-28 -11 -39 -25 -39 -57 l0 -23 -33 28 c-18 16 -55 47 -82 69 -26 22 -56 48
-66 57 -40 38 -75 46 -116 26z"/>
<path d="M7612 4868 l3 -163 198 -3 c177 -2 198 -1 204 14 7 18 6 19 -106 109
-34 28 -72 59 -85 70 -110 96 -165 135 -190 135 l-26 0 2 -162z"/>
<path d="M5672 6020 c-38 -24 -72 -89 -72 -140 0 -45 31 -113 60 -133 23 -16
23 -18 12 -99 -7 -46 -12 -96 -12 -112 0 -17 -10 -40 -22 -53 -15 -16 -23 -40
-26 -77 -4 -48 -1 -56 26 -87 27 -31 35 -34 83 -33 45 0 56 5 81 32 22 26 28
42 28 79 0 27 -6 53 -15 62 -12 14 -12 34 -3 136 12 118 13 121 42 140 51 33
76 81 76 142 0 62 -17 100 -60 137 -27 22 -41 26 -98 26 -50 0 -76 -5 -100
-20z m140 -87 c27 -24 24 -87 -4 -107 -12 -9 -32 -16 -43 -16 -32 0 -65 36
-65 70 0 58 70 92 112 53z"/>
<path d="M1613 5973 c-18 -9 -38 -29 -45 -44 -10 -22 -27 -33 -73 -49 -127
-45 -113 -28 -302 -350 -155 -263 -176 -295 -201 -298 -58 -6 -113 -45 -141
-99 -17 -34 -13 -114 8 -153 36 -68 119 -103 192 -81 94 28 139 125 108 231
-11 36 -9 41 45 132 31 51 56 99 56 106 0 7 4 12 8 12 5 0 21 24 36 53 15 28
40 75 56 102 17 28 46 80 67 116 36 64 38 66 107 90 57 20 78 23 107 16 67
-18 139 43 139 116 0 51 -68 118 -117 116 -10 0 -33 -8 -50 -16z m-561 -860
c25 -23 24 -77 -4 -103 -65 -60 -150 36 -91 103 20 22 71 22 95 0z"/>
<path d="M5287 5780 c-37 -29 -52 -83 -38 -131 7 -22 17 -39 23 -39 6 0 8 -9
4 -22 -4 -13 -13 -103 -21 -201 -15 -181 -11 -219 20 -231 14 -5 224 -23 405
-34 131 -8 120 4 106 -114 -7 -50 -11 -59 -40 -76 -46 -27 -80 -100 -73 -158
10 -94 94 -163 184 -150 52 7 106 43 128 86 19 36 19 122 1 158 -8 15 -24 36
-36 47 -20 18 -21 25 -15 120 3 55 11 110 17 121 7 16 6 29 -6 51 -21 42 -63
51 -301 63 -256 13 -257 14 -251 54 3 17 8 80 12 141 5 93 10 114 29 140 32
41 39 77 25 119 -16 49 -53 76 -105 76 -27 0 -51 -7 -68 -20z m600 -942 c13
-12 23 -32 23 -45 0 -30 -42 -73 -71 -73 -32 0 -69 38 -69 72 0 60 71 89 117
46z"/>
<path d="M1890 5408 c-58 -44 -78 -99 -62 -172 10 -50 9 -53 -29 -114 -21 -35
-39 -65 -39 -68 0 -3 -5 -10 -10 -17 -19 -21 -89 -132 -90 -140 0 -8 -14 -27
-42 -55 -39 -41 -34 -64 45 -201 50 -86 74 -136 70 -150 -8 -30 15 -88 44
-111 40 -31 107 -27 143 8 59 60 45 160 -28 188 -31 13 -46 29 -87 101 -28 48
-51 89 -52 92 -2 3 29 56 67 116 39 61 85 133 103 162 22 36 39 52 53 53 39 0
106 30 131 56 32 35 43 65 43 121 0 97 -56 155 -155 161 -56 4 -64 2 -105 -30z
m139 -84 c38 -31 40 -62 6 -98 -29 -31 -53 -33 -89 -5 -19 15 -26 30 -26 54 0
24 7 39 26 54 34 27 46 26 83 -5z"/>
<path d="M3749 4885 c-35 -19 -47 -52 -59 -165 -14 -130 -44 -382 -81 -680
-20 -162 -23 -227 -13 -255 10 -26 57 -44 130 -50 38 -4 117 -13 175 -21 58
-8 148 -19 200 -24 52 -6 146 -16 209 -24 63 -7 165 -19 226 -27 l111 -13 39
29 c21 16 42 31 46 35 8 6 33 174 47 325 6 55 19 174 30 265 58 466 55 428 37
455 -28 43 -33 44 -266 70 -74 9 -155 18 -180 21 -25 3 -115 13 -200 24 -85
10 -200 24 -255 29 -55 6 -116 13 -135 16 -21 3 -45 -1 -61 -10z m191 -170
c25 -3 108 -12 185 -20 77 -8 192 -21 255 -30 63 -8 138 -17 165 -19 137 -14
144 -16 140 -45 -6 -44 -24 -191 -35 -291 -31 -279 -60 -503 -65 -509 -3 -2
-46 1 -97 7 -51 7 -163 19 -248 27 -85 9 -177 20 -205 25 -27 5 -101 15 -162
21 -70 7 -113 16 -113 23 0 15 25 229 49 426 11 91 25 218 32 282 12 111 13
117 33 113 12 -3 41 -7 66 -10z"/>
<path d="M2134 3406 c-32 -14 -64 -67 -64 -106 0 -29 26 -76 52 -94 29 -20 97
-21 125 -1 20 14 50 13 300 -4 303 -22 340 -27 364 -47 48 -42 140 -17 166 45
29 69 -11 149 -82 167 -27 7 -77 -10 -100 -33 -11 -11 -35 -12 -127 -3 -62 5
-196 14 -297 19 -156 8 -186 12 -194 26 -10 19 -66 45 -94 45 -10 -1 -32 -7
-49 -14z"/>
<path d="M2224 3081 c-37 -16 -83 -71 -90 -107 -9 -51 0 -118 22 -146 39 -53
64 -63 149 -63 78 0 83 -2 135 -40 30 -22 57 -42 60 -45 3 -4 32 -26 65 -51
33 -24 68 -51 77 -59 16 -13 18 -33 18 -158 0 -79 4 -142 8 -140 5 2 36 21 70
43 l62 40 0 96 c0 53 3 110 6 128 5 26 1 35 -28 63 -19 18 -47 42 -62 53 -14
11 -32 25 -39 30 -6 6 -37 29 -67 53 -30 23 -59 45 -65 50 -5 4 -27 20 -47 36
-31 23 -38 35 -38 63 0 46 -21 92 -59 128 -27 25 -41 29 -94 32 -34 2 -71 -1
-83 -6z m110 -102 c19 -15 26 -30 26 -54 0 -24 -7 -39 -26 -54 -37 -29 -58
-26 -88 10 -30 36 -32 56 -8 85 32 38 59 42 96 13z"/>
</g>
</svg>
