<?xml version="1.0" standalone="no"?>
<!DOCTYPE svg PUBLIC "-//W3C//DTD SVG 20010904//EN"
 "http://www.w3.org/TR/2001/REC-SVG-20010904/DTD/svg10.dtd">
<svg version="1.0" xmlns="http://www.w3.org/2000/svg"
 width="319.000000pt" height="256.000000pt" viewBox="0 0 319.000000 256.000000"
 preserveAspectRatio="xMidYMid meet">
<metadata>
Created by potrace 1.16, written by Peter Selinger 2001-2019
</metadata>
<g transform="translate(0.000000,256.000000) scale(0.100000,-0.100000)"
fill="#000000" stroke="none">
<path d="M1235 2336 c-5 -2 -44 -12 -85 -21 -124 -28 -221 -85 -326 -190 -127
-126 -165 -210 -216 -470 -13 -64 -17 -72 -53 -97 -22 -14 -64 -34 -92 -43
-29 -9 -55 -21 -58 -26 -9 -13 73 -97 135 -139 46 -31 172 -101 190 -105 3 -1
43 -13 90 -27 273 -83 626 -92 861 -22 29 9 59 17 64 18 11 2 241 112 310 148
101 53 182 120 235 194 13 18 27 20 112 21 103 2 189 28 208 63 13 25 4 30
-56 30 -73 0 -176 35 -221 76 -23 20 -32 33 -23 34 15 0 101 -40 110 -51 3 -4
50 -7 105 -8 61 -1 119 -8 149 -18 56 -18 54 -20 93 77 30 76 31 174 1 237
-59 125 -230 215 -381 199 -180 -19 -299 -156 -322 -371 -17 -155 -69 -285
-150 -368 -31 -32 -45 -55 -43 -70 2 -16 -8 -28 -42 -49 -40 -25 -151 -72
-155 -65 -1 1 -9 20 -17 42 -16 42 -14 65 6 65 6 0 44 15 83 34 134 64 232
193 263 343 12 58 11 67 -10 125 -68 188 -246 344 -465 409 -64 19 -271 36
-300 25z m213 -117 c6 -1 12 -6 12 -10 0 -4 8 -5 19 -2 18 5 81 -21 81 -33 0
-4 -26 -30 -57 -60 l-58 -54 -135 0 -136 0 -54 55 -54 54 39 17 c21 8 48 17
60 18 11 1 26 6 33 10 7 4 16 5 20 2 4 -2 14 0 22 5 13 8 165 7 208 -2z m329
-178 c35 -35 63 -70 63 -78 0 -8 9 -23 20 -35 11 -12 20 -30 20 -39 0 -10 5
-21 10 -24 6 -3 10 -20 10 -36 l0 -30 -122 3 -122 3 -65 109 -64 109 61 59 61
59 33 -18 c17 -10 60 -47 95 -82z m-741 47 c73 -67 73 -64 -3 -183 l-67 -105
-107 0 -108 0 8 28 c21 72 76 158 146 228 41 41 77 74 80 74 3 0 26 -19 51
-42z m1439 -119 c63 -22 101 -29 128 -26 42 6 43 5 21 -17 -12 -12 -27 -15
-69 -10 -48 6 -54 4 -59 -14 -16 -50 -96 -28 -96 27 0 28 -30 51 -65 51 -8 0
-15 5 -15 10 0 19 65 10 155 -21z m-983 -47 c20 -31 49 -80 65 -109 l28 -52
-62 -125 -63 -126 -144 0 -144 0 -66 122 c-37 68 -64 129 -61 136 3 7 32 58
66 113 l61 99 141 0 142 0 37 -58z m-471 -301 c27 -52 49 -100 49 -107 0 -7
-15 -25 -34 -39 l-34 -26 -59 17 c-78 22 -232 84 -239 96 -3 5 -1 32 6 61 6
29 13 62 16 75 4 22 7 23 125 20 l120 -3 50 -94z m855 52 c-40 -78 -116 -142
-218 -182 -55 -22 -59 -22 -83 -7 -14 9 -25 20 -25 23 0 4 23 53 50 110 l50
103 125 0 125 0 -24 -47z m-1103 -240 c4 0 50 -16 102 -34 103 -35 99 -30 74
-97 -8 -20 -14 -23 -42 -17 -94 20 -326 133 -331 160 0 5 13 19 31 31 l32 22
63 -32 c35 -17 67 -32 71 -33z m799 -102 c20 -41 14 -59 -21 -69 -30 -8 -429
-10 -481 -2 -38 6 -39 12 -20 75 l10 30 247 0 248 0 17 -34z"/>
<path d="M2240 1392 c-8 -10 -34 -33 -57 -52 -37 -29 -43 -39 -43 -72 0 -36 2
-38 30 -38 27 0 30 3 30 31 0 38 24 35 28 -4 3 -22 8 -27 33 -27 26 0 29 3 29
30 0 23 4 30 20 30 16 0 20 -7 20 -30 0 -27 3 -30 30 -30 27 0 30 3 30 30 0
39 27 41 32 3 2 -20 9 -29 25 -31 14 -2 23 -11 25 -25 2 -16 11 -23 31 -25 38
-5 36 -32 -4 -32 -28 0 -30 -2 -27 -32 2 -28 8 -34 31 -36 15 -2 27 -9 27 -17
0 -8 -12 -15 -27 -17 -24 -3 -28 -8 -28 -33 0 -25 5 -31 29 -35 39 -7 39 -23
1 -30 -25 -4 -30 -10 -33 -38 -3 -24 -8 -32 -23 -32 -14 0 -21 -9 -25 -30 -4
-16 -13 -30 -20 -30 -9 0 -14 11 -14 30 0 27 -3 30 -30 30 -27 0 -30 -3 -30
-30 0 -23 -4 -30 -20 -30 -16 0 -20 7 -20 31 0 27 -3 30 -27 27 -22 -2 -29 -9
-31 -30 -5 -39 -32 -37 -32 2 0 27 -3 30 -30 30 -27 0 -30 -3 -30 -30 0 -19
-5 -30 -14 -30 -7 0 -16 14 -19 30 -5 21 -12 30 -27 30 -17 0 -20 -6 -20 -48
0 -83 -2 -82 282 -82 226 0 248 2 269 19 l23 19 -3 293 c-2 251 -5 297 -18
312 -14 15 -37 17 -187 17 -152 0 -173 -2 -186 -18z"/>
<path d="M665 1178 c-38 -55 -81 -258 -69 -325 4 -19 19 -47 35 -62 23 -24 39
-29 97 -35 116 -11 140 4 108 67 -14 25 -14 26 3 17 10 -5 24 -24 32 -42 16
-41 22 -46 60 -40 61 9 59 75 -3 139 -31 32 -31 33 -25 110 4 43 9 88 13 100
5 19 -1 23 -53 37 -32 10 -64 19 -71 21 -7 3 -14 5 -17 5 -3 0 -23 7 -46 15
-51 18 -45 19 -64 -7z"/>
<path d="M2066 1174 c-12 -30 -7 -239 6 -252 8 -8 62 -12 179 -12 141 0 169 2
180 16 10 12 13 47 11 131 -1 63 -4 119 -8 124 -3 5 -85 9 -184 9 -153 0 -179
-2 -184 -16z"/>
<path d="M1768 1149 c-10 -5 -18 -7 -18 -3 0 3 -6 2 -12 -4 -7 -5 -39 -15 -70
-22 -39 -9 -59 -19 -63 -31 -3 -10 -7 -73 -8 -141 -1 -104 2 -127 17 -150 21
-33 69 -48 149 -48 l57 0 0 32 c0 17 -8 41 -17 52 -18 20 -18 20 6 5 14 -9 30
-31 37 -50 10 -29 16 -34 39 -32 48 4 55 10 55 51 0 30 -8 48 -37 81 -34 40
-37 49 -44 129 -9 109 -21 142 -51 142 -13 0 -31 -5 -40 -11z"/>
<path d="M44 546 c-3 -7 -4 -33 -2 -57 l3 -44 65 -5 65 -5 1 -182 c1 -100 5
-186 9 -192 9 -15 88 -14 103 1 8 8 12 66 12 195 l0 182 63 3 62 3 3 49 c2 32
-1 52 -10 57 -7 5 -93 9 -191 9 -142 0 -179 -3 -183 -14z"/>
<path d="M574 546 c-17 -7 -40 -26 -52 -41 -21 -26 -22 -38 -22 -205 l0 -178
35 -30 c43 -38 77 -45 199 -40 107 3 137 18 168 79 26 50 26 298 0 348 -32 64
-60 76 -185 79 -80 2 -121 -2 -143 -12z m205 -112 c3 -3 8 -60 9 -127 4 -141
1 -147 -84 -147 -79 0 -84 9 -84 145 0 139 3 144 91 139 34 -2 65 -7 68 -10z"/>
<path d="M1013 554 c-10 -4 -13 -64 -13 -250 l0 -244 24 -6 c13 -3 38 -4 57
-2 l34 3 5 80 5 80 35 0 c34 0 37 -3 78 -83 l43 -82 60 0 c40 0 61 4 65 13 2
7 -15 47 -40 87 l-44 74 28 18 c42 25 50 47 50 142 0 156 -17 168 -230 173
-80 1 -151 0 -157 -3z m254 -117 c16 -10 15 -83 -1 -96 -9 -7 -39 -11 -78 -9
l-63 3 -3 56 -3 56 70 -2 c38 -2 73 -5 78 -8z"/>
<path d="M1503 554 c-10 -4 -13 -55 -13 -205 0 -227 5 -246 70 -279 54 -28
206 -28 267 -1 68 31 73 50 73 279 0 218 2 212 -60 212 -61 0 -60 4 -60 -190
0 -208 -1 -210 -84 -210 -83 0 -85 4 -88 216 l-3 179 -45 2 c-25 1 -51 0 -57
-3z"/>
<path d="M2000 550 c-11 -7 -15 -473 -5 -490 7 -12 85 -13 102 -2 8 5 13 49
15 137 l3 130 24 -39 c13 -21 24 -45 24 -52 0 -8 4 -14 8 -14 4 0 29 -35 54
-77 26 -43 52 -81 59 -85 15 -10 104 -10 110 0 3 5 6 116 7 246 2 260 3 256
-56 256 -52 0 -54 -5 -57 -153 l-3 -137 -80 132 c-44 72 -86 138 -94 145 -13
14 -90 16 -111 3z"/>
<path d="M2511 551 c-12 -8 -14 -51 -13 -247 1 -131 6 -242 10 -246 5 -5 31
-8 58 -6 l49 3 3 244 c2 189 -1 246 -10 253 -17 10 -80 10 -97 -1z"/>
<path d="M2700 546 c0 -14 32 -71 97 -173 18 -28 33 -56 33 -61 0 -5 -32 -60
-71 -122 -38 -62 -68 -119 -65 -126 7 -18 96 -19 118 -1 8 6 32 40 52 74 21
35 42 63 47 63 6 0 8 -4 5 -9 -4 -5 -3 -11 2 -13 4 -1 23 -28 42 -58 19 -30
39 -58 45 -62 19 -14 115 -9 121 6 3 7 -27 64 -65 125 -39 62 -71 116 -71 121
0 5 30 56 66 115 37 59 63 112 60 120 -4 11 -21 15 -56 15 -58 0 -73 -12 -115
-89 l-28 -51 -38 57 c-55 84 -53 83 -119 83 -45 0 -60 -3 -60 -14z"/>
</g>
</svg>
