<?xml version="1.0" encoding="UTF-8"?>
<svg xmlns="http://www.w3.org/2000/svg" xmlns:xlink="http://www.w3.org/1999/xlink" width="341.333333" height="341.333333" viewBox="0 0 341.333333 341.333333" version="1.1">
<g id="surface1">
<path style=" stroke:none;fill-rule:nonzero;fill:rgb(0%,0%,0%);fill-opacity:1;" d="M 116.667969 27.332031 C 113.734375 28.398438 110.535156 29.332031 109.601562 29.332031 C 107.601562 29.332031 95.734375 34.535156 94.667969 35.867188 C 94.265625 36.398438 92.265625 37.464844 90.265625 38.398438 C 85.332031 40.535156 84 41.601562 71.332031 54.132812 C 60.667969 64.667969 54.800781 73.066406 45.601562 91.601562 C 38.800781 105.066406 36.265625 115.734375 32 147.734375 C 30 163.199219 28.933594 167.332031 26.398438 170.667969 C 24.667969 172.800781 22.265625 174.933594 21.066406 175.332031 C 19.734375 175.867188 18.667969 176.800781 18.667969 177.464844 C 18.667969 178.132812 18 178.667969 17.199219 178.667969 C 16.398438 178.667969 12.800781 180 9.199219 181.601562 C 1.867188 185.066406 1.066406 187.601562 4.933594 195.734375 C 7.199219 200.398438 19.734375 213.734375 28 220.132812 C 30.265625 221.867188 33.332031 224.398438 34.933594 225.601562 C 36.398438 226.933594 38.800781 228.265625 40.132812 228.667969 C 41.601562 229.199219 42.667969 230.132812 42.667969 230.800781 C 42.667969 231.464844 43.464844 232 44.535156 232 C 45.601562 232 47.332031 232.800781 48.265625 233.734375 C 50.398438 235.734375 63.332031 241.066406 69.066406 242.132812 C 71.332031 242.667969 73.332031 243.464844 73.332031 244 C 73.332031 244.667969 76.535156 245.464844 80.398438 246 C 84.132812 246.535156 88 247.464844 88.933594 248.265625 C 89.734375 248.933594 99.199219 250.132812 109.867188 250.933594 C 130.265625 252.535156 165.066406 250.933594 168.398438 248.265625 C 169.332031 247.601562 172.535156 246.535156 175.601562 246 C 178.800781 245.464844 181.601562 244.667969 182 244.132812 C 182.265625 243.464844 185.332031 242.265625 188.667969 241.332031 C 192 240.398438 194.667969 239.066406 194.667969 238.535156 C 194.667969 237.867188 195.464844 237.332031 196.398438 237.332031 C 197.464844 237.332031 199.601562 236.132812 201.332031 234.667969 C 203.066406 233.199219 205.199219 232 206.265625 232 C 207.199219 232 208 231.332031 208 230.667969 C 208 229.867188 209.464844 228.667969 211.332031 228 C 213.199219 227.332031 214.667969 226.132812 214.667969 225.332031 C 214.667969 224.667969 216.132812 223.734375 218 223.199219 C 219.867188 222.800781 221.332031 221.867188 221.332031 221.332031 C 221.332031 220.667969 223.464844 219.464844 226 218.667969 C 228.535156 217.867188 230.667969 216.535156 230.667969 215.867188 C 230.667969 215.199219 231.464844 214.667969 232.398438 214.667969 C 233.199219 214.667969 236.398438 212.398438 239.464844 209.601562 C 242.398438 206.933594 248 202 252 198.667969 C 256.398438 194.933594 261.199219 188.800781 265.066406 182.265625 L 271.066406 172 L 284.800781 172 C 292.265625 172 298.800781 171.464844 299.199219 170.800781 C 299.601562 170.132812 301.464844 169.199219 303.332031 168.800781 C 307.199219 167.867188 311.601562 163.867188 314.132812 158.933594 C 316.800781 153.734375 314.535156 152 304.535156 152 C 299.867188 152 296 151.464844 296 150.800781 C 296 150.132812 294 149.199219 291.601562 148.800781 C 286.933594 147.867188 283.867188 146 276.535156 139.066406 C 270 132.933594 270.933594 131.199219 278 136.667969 C 281.332031 139.199219 286.132812 141.601562 288.667969 142.132812 C 291.199219 142.535156 293.332031 143.464844 293.332031 144.132812 C 293.332031 144.800781 298.800781 145.332031 305.464844 145.332031 C 315.332031 145.332031 318.800781 145.867188 323.464844 148.265625 C 329.199219 151.066406 329.332031 151.066406 331.199219 148.535156 C 334.667969 143.867188 338.933594 126.132812 339.601562 114 C 340.933594 89.867188 333.601562 72.398438 316.535156 58.933594 C 314.535156 57.332031 312 56 311.066406 56 C 310.132812 56 309.332031 55.332031 309.332031 54.667969 C 309.332031 53.867188 308.535156 53.332031 307.734375 53.332031 C 306.800781 53.332031 304.265625 52.265625 302 51.066406 C 297.332031 48.535156 278.800781 47.867188 275.867188 50.132812 C 274.800781 50.933594 272.265625 52 270.132812 52.535156 C 265.464844 53.734375 255.464844 62.800781 250.398438 70.667969 C 245.199219 78.800781 239.066406 98.535156 237.332031 112.800781 C 232.535156 154 224.800781 178.800781 212.535156 193.066406 C 208.265625 198.132812 207.734375 199.332031 208.800781 202.398438 C 210 205.734375 209.601562 206.398438 202.933594 211.601562 C 198.933594 214.800781 194.800781 217.332031 193.867188 217.332031 C 192.800781 217.332031 192 217.867188 192 218.667969 C 192 219.332031 190.398438 220.398438 188.398438 220.800781 C 186.265625 221.332031 184.265625 222.265625 183.867188 222.933594 C 183.332031 223.734375 182 220.265625 180.667969 215.464844 C 179.332031 210.535156 178.535156 206.535156 178.800781 206.265625 C 179.066406 206.132812 182.265625 204.535156 185.867188 202.667969 C 200.800781 195.066406 214.933594 179.464844 221.332031 163.066406 C 223.066406 158.800781 224.933594 154.667969 225.464844 154 C 226 153.199219 227.464844 148.535156 228.535156 143.601562 C 231.332031 131.601562 231.332031 114.265625 228.535156 106 C 225.464844 97.332031 215.464844 77.066406 210.398438 69.464844 C 204.535156 60.667969 188.535156 45.199219 180.667969 40.667969 C 177.066406 38.535156 173.867188 36.265625 173.601562 35.734375 C 173.332031 35.199219 172.398438 34.667969 171.601562 34.667969 C 170.667969 34.667969 168.398438 33.734375 166.265625 32.800781 C 154.265625 26.535156 127.066406 23.464844 116.667969 27.332031 Z M 151.734375 51.464844 C 152.265625 52.132812 153.734375 52.800781 154.933594 53.066406 C 156.132812 53.199219 159.332031 54.132812 162 55.066406 L 166.933594 56.800781 L 161.867188 62.800781 C 158.933594 66.132812 155.199219 71.066406 153.332031 73.734375 L 150 78.667969 L 112.132812 78.667969 L 104.800781 68.933594 C 100.398438 63.199219 98.132812 59.066406 99.066406 58.800781 C 99.867188 58.535156 101.464844 57.464844 102.398438 56.398438 C 103.332031 55.464844 105.066406 54.667969 106.265625 54.667969 C 107.332031 54.667969 110.132812 53.867188 112.398438 52.800781 C 114.800781 51.734375 117.867188 50.535156 119.332031 50.132812 C 123.734375 49.066406 150.800781 50.132812 151.734375 51.464844 Z M 186.132812 72.132812 C 194.535156 79.199219 203.867188 94.667969 210 111.867188 C 214.800781 125.066406 214.667969 126.265625 207.199219 127.464844 C 201.199219 128.265625 182.132812 127.332031 180 126 C 178.132812 124.800781 162.398438 87.867188 163.199219 86 C 163.464844 85.066406 167.199219 80 171.332031 74.800781 C 177.601562 67.199219 179.199219 65.734375 180.667969 67.066406 C 181.601562 68.132812 184.132812 70.265625 186.132812 72.132812 Z M 96.800781 82.800781 L 100.535156 88.265625 L 92.398438 104.398438 C 87.867188 113.332031 83.867188 122 83.464844 123.601562 C 82.535156 126.398438 81.601562 126.535156 67.199219 126.933594 L 51.867188 127.332031 L 52.667969 124 C 56.535156 108.933594 69.734375 83.867188 79.332031 73.464844 L 84.667969 67.734375 L 88.800781 72.667969 C 91.199219 75.332031 94.667969 79.867188 96.800781 82.800781 Z M 284.535156 93.199219 C 284.933594 93.734375 288 95.066406 291.332031 96 C 294.667969 96.933594 297.332031 98.132812 297.332031 98.800781 C 297.332031 99.332031 299.464844 100.265625 302 100.800781 C 304.535156 101.199219 306.667969 102.132812 306.667969 102.800781 C 306.667969 104.667969 313.867188 104.265625 315.867188 102.265625 C 317.332031 100.933594 317.332031 101.199219 316.132812 103.601562 C 314.398438 106.933594 309.601562 107.601562 305.464844 105.066406 C 302.265625 103.066406 299.332031 104.398438 297.066406 108.800781 C 296.132812 110.800781 294.265625 113.066406 293.066406 113.867188 C 289.867188 115.734375 285.332031 110.398438 285.332031 104.667969 C 285.332031 99.601562 282.132812 95.601562 276.667969 93.601562 L 272.667969 92.265625 L 278.265625 92.132812 C 281.332031 92 284.132812 92.535156 284.535156 93.199219 Z M 152.398438 100 C 153.601562 102.535156 157.734375 111.464844 161.464844 119.734375 C 168.933594 136.265625 168.933594 136.535156 163.066406 149.332031 C 161.199219 153.332031 158 162.265625 155.734375 169.066406 L 151.734375 181.464844 L 131.601562 181.066406 L 111.332031 180.667969 L 109.066406 176 C 107.867188 173.464844 103.734375 163.601562 100 154.132812 L 93.066406 136.933594 L 95.332031 130.800781 C 96.667969 127.464844 100.933594 117.867188 105.066406 109.601562 L 112.535156 94.535156 L 131.199219 94.933594 L 150 95.332031 Z M 85.199219 154.398438 C 86.933594 159.332031 90.132812 166.933594 92.265625 171.464844 C 94.265625 176 96 180.398438 96 181.464844 C 96 184 88.265625 193.332031 86.265625 193.332031 C 85.332031 193.332031 83.066406 192.535156 81.066406 191.464844 C 79.066406 190.398438 75.734375 189.199219 73.464844 188.667969 C 71.199219 188.132812 69.332031 187.199219 69.332031 186.535156 C 69.332031 185.867188 68.535156 185.332031 67.734375 185.332031 C 65.601562 185.332031 53.867188 179.066406 48.800781 175.332031 L 45.066406 172.535156 L 46.535156 161.332031 C 48.933594 142.667969 46.800781 144.667969 65.601562 145.066406 L 82.132812 145.464844 Z M 212 146.265625 C 212 146.667969 209.734375 151.734375 207.066406 157.199219 C 201.734375 168 187.199219 184 182.800781 184 C 182.132812 184 180.667969 184.933594 179.464844 186 C 178.398438 187.066406 175.734375 188.398438 173.601562 188.800781 C 170.265625 189.464844 169.199219 189.066406 167.332031 186.132812 C 164.800781 182.265625 164.800781 182.265625 174.933594 155.601562 L 178.800781 145.332031 L 195.464844 145.332031 C 204.535156 145.332031 212 145.734375 212 146.265625 Z M 40.398438 189.601562 C 42.800781 191.332031 44.800781 193.066406 45.066406 193.601562 C 45.332031 194.132812 47.601562 195.199219 50.132812 196 C 52.667969 196.800781 54.667969 198 54.667969 198.667969 C 54.667969 199.332031 56.535156 200.132812 58.667969 200.667969 C 60.933594 201.199219 62.667969 202 62.667969 202.667969 C 62.667969 203.199219 65.332031 204.398438 68.535156 205.199219 C 71.867188 206 74.933594 207.199219 75.332031 208 C 75.734375 208.667969 77.332031 209.332031 78.800781 209.332031 C 81.734375 209.332031 81.867188 209.734375 79.734375 218.535156 C 78 226 77.066406 226.535156 69.601562 223.199219 C 54.535156 216.667969 48 213.066406 42.933594 208.265625 C 42 207.464844 40.667969 206.667969 40.265625 206.667969 C 39.734375 206.667969 36.265625 203.867188 32.667969 200.535156 C 26.398438 194.933594 26.132812 194.398438 28.535156 192.933594 C 29.867188 192 32 190.265625 33.199219 188.933594 C 35.734375 186.132812 35.199219 186.132812 40.398438 189.601562 Z M 102.667969 212 C 102.667969 212.800781 111.734375 213.332031 127.199219 213.332031 C 142.265625 213.332031 152.132812 212.800781 152.667969 212 C 153.066406 211.199219 156 210.667969 159.199219 210.667969 L 164.933594 210.667969 L 167.332031 218.667969 C 168.667969 223.066406 169.332031 227.066406 168.800781 227.601562 C 166.265625 230.265625 115.867188 231.867188 98.933594 229.734375 L 91.734375 228.933594 L 92.667969 224.132812 C 94.398438 213.867188 96 210.667969 99.464844 210.667969 C 101.199219 210.667969 102.667969 211.199219 102.667969 212 Z M 102.667969 212 "/>
<path style=" stroke:none;fill-rule:nonzero;fill:rgb(0%,0%,0%);fill-opacity:1;" d="M 261.332031 205.601562 C 259.601562 208 255.601562 212.398438 252.398438 215.199219 C 246.800781 220.265625 246.667969 220.535156 246.667969 228.800781 L 246.667969 237.332031 L 251.199219 237.332031 C 256.265625 237.332031 257.332031 235.734375 257.332031 228.535156 C 257.332031 222 259.464844 222.933594 259.867188 229.601562 C 260.265625 236.667969 260.667969 237.332031 265.332031 237.332031 C 268.933594 237.332031 269.199219 236.933594 269.601562 231.066406 C 270.132812 222.132812 273.332031 221.734375 273.332031 230.667969 L 273.332031 237.464844 L 278.398438 237.066406 C 283.332031 236.667969 283.332031 236.667969 283.734375 230.265625 C 284 226.800781 284.667969 224 285.464844 224 C 286.132812 224 286.667969 224.800781 286.800781 225.601562 C 286.933594 226.535156 287.066406 228.265625 287.199219 229.332031 C 287.464844 230.398438 287.601562 232.667969 287.734375 234.265625 C 288 236.535156 288.800781 237.332031 291.199219 237.332031 C 292.933594 237.332031 294.398438 238.132812 294.265625 238.933594 C 294.132812 245.199219 294.800781 246.667969 298 246.667969 C 299.867188 246.667969 301.332031 247.199219 301.332031 248 C 301.332031 248.667969 300.132812 249.332031 298.667969 249.332031 C 292.398438 249.332031 291.734375 263.199219 298 264.800781 C 302.667969 266 302.398438 270.398438 297.734375 270.933594 C 291.601562 271.601562 291.867188 281.867188 298 283.464844 C 302 284.398438 302.535156 288 298.667969 288 C 295.332031 288 292.933594 292.535156 293.601562 297.464844 C 294.132812 300.535156 293.734375 301.332031 291.867188 301.332031 C 288.933594 301.332031 287.867188 302.933594 287.734375 308 C 287.601562 313.734375 284 313.199219 284 307.464844 C 284 302.535156 282.265625 301.199219 276.933594 302.265625 C 273.867188 302.933594 273.332031 303.601562 273.332031 307.464844 C 273.332031 310.667969 272.667969 312 271.332031 312 C 270 312 269.332031 310.667969 269.332031 307.464844 C 269.332031 302 268.535156 301.332031 263.601562 302.265625 C 260.535156 302.933594 260 303.601562 260 307.464844 C 260 310 259.464844 312 258.667969 312 C 258 312 257.332031 310.265625 257.332031 308.132812 C 257.332031 303.332031 255.066406 301.332031 250.398438 302.265625 C 247.199219 302.933594 246.667969 303.601562 246.667969 307.464844 C 246.667969 313.332031 244.398438 313.332031 243.199219 307.332031 C 242.535156 303.601562 241.734375 302.667969 239.199219 302.667969 C 236.132812 302.667969 236 303.066406 236 310.800781 C 236 315.464844 236.933594 320.800781 238.132812 323.464844 L 240.265625 328 L 275.332031 328 C 313.066406 328 312.398438 328.132812 316.265625 320.933594 C 317.332031 318.800781 317.734375 303.066406 317.464844 263.464844 C 317.199219 210 316.800781 205.066406 312.800781 202.398438 C 312 201.867188 300.800781 201.332031 287.867188 201.332031 L 264.535156 201.332031 Z M 261.332031 205.601562 "/>
<path style=" stroke:none;fill-rule:nonzero;fill:rgb(0%,0%,0%);fill-opacity:1;" d="M 39.734375 242.933594 C 34.265625 249.734375 26.933594 295.464844 29.332031 308.132812 C 32.132812 322.933594 37.734375 326.933594 54.667969 326.398438 L 66 326 L 66.800781 321.332031 C 67.332031 318.667969 67.734375 317.867188 67.867188 319.601562 C 68.132812 325.066406 69.464844 326.667969 73.867188 326.667969 C 80 326.667969 84 322.535156 84 316.132812 C 84 310.667969 80 301.066406 75.601562 296.398438 C 73.066406 293.601562 73.066406 292.398438 73.867188 273.332031 C 74.667969 257.199219 74.535156 253.332031 73.066406 253.332031 C 72.132812 253.199219 68.933594 252.132812 66 250.667969 C 63.066406 249.199219 59.601562 248.132812 58.398438 248 C 57.066406 248 56 247.332031 56 246.535156 C 56 245.867188 55.464844 245.601562 54.667969 246 C 54 246.398438 53.332031 246.132812 53.332031 245.464844 C 53.332031 244.667969 52.265625 244 51.066406 244 C 49.734375 244 47.066406 243.199219 45.199219 242.132812 C 42.132812 240.535156 41.601562 240.667969 39.734375 242.933594 Z M 39.734375 242.933594 "/>
<path style=" stroke:none;fill-rule:nonzero;fill:rgb(0%,0%,0%);fill-opacity:1;" d="M 237.332031 245.464844 C 236.398438 247.199219 236 256.265625 236.265625 271.464844 C 236.535156 290.398438 237.066406 295.066406 238.667969 296 C 239.734375 296.667969 250.933594 297.332031 263.601562 297.332031 C 282.667969 297.332031 286.800781 296.933594 288.535156 295.199219 C 290.265625 293.464844 290.667969 289.332031 290.667969 270.535156 C 290.667969 257.464844 290.132812 246.667969 289.332031 245.199219 C 288 242.800781 286.265625 242.667969 263.332031 242.667969 C 239.867188 242.667969 238.667969 242.800781 237.332031 245.464844 Z M 237.332031 245.464844 "/>
<path style=" stroke:none;fill-rule:nonzero;fill:rgb(0%,0%,0%);fill-opacity:1;" d="M 193.332031 250.800781 C 190.800781 252.132812 188 253.332031 187.066406 253.332031 C 186.132812 253.332031 185.332031 253.867188 185.332031 254.398438 C 185.332031 255.066406 182.535156 256.132812 179.066406 256.800781 C 173.464844 257.867188 172.667969 258.398438 171.601562 262.535156 C 170.933594 265.066406 170.667969 278.265625 170.933594 291.867188 C 171.332031 318.265625 171.734375 320.132812 178.667969 324.933594 C 182.667969 327.734375 199.199219 328.933594 202 326.667969 C 203.066406 325.734375 204.132812 323.066406 204.132812 320.800781 L 204.398438 316.667969 L 204.933594 320.667969 C 205.601562 325.734375 208.265625 327.867188 213.066406 326.933594 C 218.132812 326.132812 220 323.199219 220 316.132812 C 220 310.398438 218.398438 306.398438 211.867188 294.667969 C 210 291.332031 209.332031 287.332031 209.332031 280.667969 C 209.332031 271.734375 207.464844 255.332031 205.867188 250.265625 C 204.933594 247.199219 199.332031 247.464844 193.332031 250.800781 Z M 193.332031 250.800781 "/>
</g>
</svg>
